# This file uses centimeters as units for non-parametric coordinates.

mtllib divorcepaper.mtl
g default
v 3.002460 0.129628 1.148073
v 2.994222 0.464751 -5.023091
v -1.034404 0.129628 -5.023091
v -1.028805 0.044534 -3.194134
v -0.261830 0.250871 -2.927497
v 0.346428 0.592314 -1.798452
v 0.892061 0.448772 -1.622344
v 1.380776 0.212049 -2.021984
v 1.963081 0.005031 -0.616969
v 2.433221 0.120109 0.135253
v 3.002460 0.317515 1.148073
v 2.994222 0.652639 -5.023091
v -1.034404 0.317515 -5.023091
v -1.028805 0.232422 -3.194134
v -0.208358 0.317515 -3.079693
v 0.290790 0.780201 -1.697951
v 0.892061 0.549988 -1.525801
v 1.380776 0.317515 -1.843123
v 2.176364 0.192919 -0.616969
v 2.500157 0.192919 0.030503
v 2.054726 0.130172 -3.628355
v 1.800508 0.317515 -3.983875
vt 1.000000 0.000000
vt 0.997959 1.000000
vt 0.997959 1.000000
vt 1.000000 0.000000
vt 0.000000 1.000000
vt 0.000000 1.000000
vt 0.001387 0.703629
vt 0.001387 0.703629
vt 0.191380 0.660422
vt 0.204626 0.685084
vt 0.342056 0.477467
vt 0.328273 0.461181
vt 0.477218 0.448930
vt 0.477218 0.433285
vt 0.598281 0.513689
vt 0.598281 0.484705
vt 0.742528 0.286014
vt 0.795362 0.286014
vt 0.858990 0.164121
vt 0.875571 0.181096
vt 0.765230 0.773991
vt 0.702256 0.831601
vt 0.836903 0.786508
vt 0.823144 0.814676
vt 0.790907 0.761224
vt 0.772051 0.753216
vt 0.748853 0.757561
vt 0.729595 0.792433
vt 0.835717 0.797104
vt 0.697941 0.795322
vt 0.697725 0.841481
vt 0.853156 0.841481
vt 0.830362 0.779812
vt 0.835717 0.797104
vt 0.819898 0.814676
vt 0.790907 0.765739
vt 0.772051 0.755652
vt 0.751000 0.760097
vt 0.727532 0.788592
vt 0.697941 0.795322
vt 0.697725 0.841481
vt 0.853156 0.841481
vn 0.999999 0.000000 -0.001335
vn 0.999999 0.000000 -0.001335
vn 0.999999 0.000000 -0.001335
vn 0.999999 0.000000 -0.001335
vn 0.000000 0.000000 -1.000000
vn 0.000000 0.000000 -1.000000
vn 0.000000 0.000000 -1.000000
vn 0.000000 0.000000 -1.000000
vn -0.999995 0.000000 0.003061
vn -0.999995 0.000000 0.003061
vn -0.999995 0.000000 0.003061
vn -0.999995 0.000000 0.003061
vn -0.288822 0.535296 0.793751
vn -0.774829 0.254114 0.578849
vn -0.158526 0.968930 -0.189852
vn -0.035916 0.996396 0.076838
vn -0.199311 -0.935966 0.290244
vn -0.784120 -0.216960 0.581450
vn -0.274074 -0.951808 0.137642
vn -0.273075 -0.656176 0.703465
vn -0.313708 -0.946826 -0.071475
vn 0.056260 -0.798554 0.599288
vn -0.824819 0.312323 0.471305
vn -0.784690 0.446372 0.430132
vn -0.230036 0.962901 0.141088
vn 0.102925 0.988021 0.114979
vn -0.767707 0.528794 0.361945
vn -0.496572 0.854993 0.149677
vn -0.837494 0.374808 0.397646
vn -0.398531 0.907154 0.135071
vn 0.154967 -0.979259 -0.130526
vn 0.191164 -0.980821 -0.038042
vn 0.147186 -0.986475 -0.072138
vn 0.037975 -0.995765 -0.083721
vn 0.026451 -0.999607 -0.009305
vn 0.055574 -0.936940 0.345044
vn 0.197602 -0.979668 -0.034697
vn 0.060751 -0.998114 -0.008778
vn -0.180815 0.977618 0.107564
vn -0.139006 0.987147 0.078852
vn -0.029741 0.996260 0.081131
vn 0.072259 0.985766 -0.151803
vn 0.373480 0.926267 0.050428
s off
g pCylinder1
usemtl blinn1SG
f 1/34/1 2/42/2 12/32/3 11/29/4
f 2/42/5 3/41/6 13/31/7 12/32/8
f 3/41/9 4/40/10 14/30/11 13/31/12
s 1
f 4/40/13 5/39/14 15/28/15 14/30/16
f 5/39/14 6/38/17 16/27/18 15/28/15
f 6/38/17 7/37/19 17/26/20 16/27/18
f 7/37/19 8/36/21 18/25/22 17/26/20
f 8/36/23 9/35/24 19/24/25 18/25/26
f 9/35/24 10/33/27 20/23/28 19/24/25
f 10/33/27 1/34/29 11/29/30 20/23/28
f 2/2/31 1/1/32 21/21/33
f 3/5/34 2/2/31 21/21/33
f 4/7/35 3/5/34 21/21/33
f 5/9/36 4/7/35 21/21/33
f 6/11/17 5/9/36 21/21/33
f 7/13/19 6/11/17 21/21/33
f 8/15/21 7/13/19 21/21/33
f 9/17/37 8/15/21 21/21/33
f 10/19/38 9/17/37 21/21/33
f 1/1/32 10/19/38 21/21/33
f 11/4/30 12/3/39 22/22/40
f 12/3/39 13/6/41 22/22/40
f 13/6/41 14/8/16 22/22/40
f 14/8/16 15/10/15 22/22/40
f 15/10/15 16/12/42 22/22/40
f 16/12/42 17/14/43 22/22/40
f 17/14/43 18/16/26 22/22/40
f 18/16/26 19/18/25 22/22/40
f 19/18/25 20/20/28 22/22/40
f 20/20/28 11/4/30 22/22/40
